<?xml version="1.0" encoding="UTF-8" standalone="no"?>
<!DOCTYPE svg PUBLIC "-//W3C//DTD SVG 1.1//EN"
 "http://www.w3.org/Graphics/SVG/1.1/DTD/svg11.dtd">
<!-- Generated by graphviz version 2.36.0 (20140111.2315)
 -->
<!-- Title: G Pages: 1 -->
<svg width="566pt" height="1608pt"
 viewBox="0.00 0.00 566.00 1608.00" xmlns="http://www.w3.org/2000/svg" xmlns:xlink="http://www.w3.org/1999/xlink">
<g id="graph0" class="graph" transform="scale(1 1) rotate(0) translate(4 1604)">
<title>G</title>
<polygon fill="white" stroke="none" points="-4,4 -4,-1604 562,-1604 562,4 -4,4"/>
<g id="clust1" class="cluster"><title>cluster_Global</title>
<path fill="none" stroke="gray" d="M278,-8C278,-8 538,-8 538,-8 544,-8 550,-14 550,-20 550,-20 550,-1580 550,-1580 550,-1586 544,-1592 538,-1592 538,-1592 278,-1592 278,-1592 272,-1592 266,-1586 266,-1580 266,-1580 266,-20 266,-20 266,-14 272,-8 278,-8"/>
<text text-anchor="middle" x="408" y="-1579.2" font-family="Times,serif" font-size="11.00" fill="gray">Global</text>
</g>
<g id="clust2" class="cluster"><title>cluster_\google</title>
<path fill="none" stroke="gray" d="M286,-16C286,-16 530,-16 530,-16 536,-16 542,-22 542,-28 542,-28 542,-1552 542,-1552 542,-1558 536,-1564 530,-1564 530,-1564 286,-1564 286,-1564 280,-1564 274,-1558 274,-1552 274,-1552 274,-28 274,-28 274,-22 280,-16 286,-16"/>
<text text-anchor="middle" x="408" y="-1551.2" font-family="Times,serif" font-size="11.00" fill="gray">google</text>
</g>
<g id="clust3" class="cluster"><title>cluster_\google\pubsub</title>
<path fill="none" stroke="gray" d="M294,-24C294,-24 522,-24 522,-24 528,-24 534,-30 534,-36 534,-36 534,-1524 534,-1524 534,-1530 528,-1536 522,-1536 522,-1536 294,-1536 294,-1536 288,-1536 282,-1530 282,-1524 282,-1524 282,-36 282,-36 282,-30 288,-24 294,-24"/>
<text text-anchor="middle" x="408" y="-1523.2" font-family="Times,serif" font-size="11.00" fill="gray">pubsub</text>
</g>
<g id="clust4" class="cluster"><title>cluster_\google\pubsub\v1</title>
<path fill="none" stroke="gray" d="M302,-32C302,-32 514,-32 514,-32 520,-32 526,-38 526,-44 526,-44 526,-1496 526,-1496 526,-1502 520,-1508 514,-1508 514,-1508 302,-1508 302,-1508 296,-1508 290,-1502 290,-1496 290,-1496 290,-44 290,-44 290,-38 296,-32 302,-32"/>
<text text-anchor="middle" x="408" y="-1495.2" font-family="Times,serif" font-size="11.00" fill="gray">v1</text>
</g>
<g id="clust5" class="cluster"><title>cluster_\google\pubsub\v1\PubsubMessage</title>
<path fill="none" stroke="gray" d="M353,-1408C353,-1408 463,-1408 463,-1408 469,-1408 475,-1414 475,-1420 475,-1420 475,-1468 475,-1468 475,-1474 469,-1480 463,-1480 463,-1480 353,-1480 353,-1480 347,-1480 341,-1474 341,-1468 341,-1468 341,-1420 341,-1420 341,-1414 347,-1408 353,-1408"/>
<text text-anchor="middle" x="408" y="-1467.2" font-family="Times,serif" font-size="11.00" fill="gray">PubsubMessage</text>
</g>
<g id="clust6" class="cluster"><title>cluster_\google\pubsub\v1\PushConfig</title>
<path fill="none" stroke="gray" d="M353,-1328C353,-1328 463,-1328 463,-1328 469,-1328 475,-1334 475,-1340 475,-1340 475,-1388 475,-1388 475,-1394 469,-1400 463,-1400 463,-1400 353,-1400 353,-1400 347,-1400 341,-1394 341,-1388 341,-1388 341,-1340 341,-1340 341,-1334 347,-1328 353,-1328"/>
<text text-anchor="middle" x="408" y="-1387.2" font-family="Times,serif" font-size="11.00" fill="gray">PushConfig</text>
</g>
<!-- \\google\\pubsub\\v1\\PubsubMessage\\AttributesEntry -->
<g id="node1" class="node"><title>\\google\\pubsub\\v1\\PubsubMessage\\AttributesEntry</title>
<polygon fill="none" stroke="black" points="467,-1452 349,-1452 349,-1416 467,-1416 467,-1452"/>
<text text-anchor="middle" x="408" y="-1431.2" font-family="Courier,monospace" font-size="11.00">AttributesEntry</text>
</g>
<!-- \\DrSlump\\Protobuf\\Message -->
<g id="node27" class="node"><title>\\DrSlump\\Protobuf\\Message</title>
<ellipse fill="none" stroke="black" cx="113" cy="-787" rx="112.38" ry="18"/>
<text text-anchor="middle" x="113" y="-783.3" font-family="Times,serif" font-size="14.00" fill="gray">\DrSlump\Protobuf\Message</text>
</g>
<!-- \\google\\pubsub\\v1\\PubsubMessage\\AttributesEntry&#45;&gt;\\DrSlump\\Protobuf\\Message -->
<g id="edge2" class="edge"><title>\\google\\pubsub\\v1\\PubsubMessage\\AttributesEntry&#45;&gt;\\DrSlump\\Protobuf\\Message</title>
<path fill="none" stroke="black" d="M348.87,-1435.35C320.442,-1432.92 287.752,-1425.07 266,-1404 178.862,-1319.6 129.262,-924.848 117.013,-815.273"/>
<polygon fill="none" stroke="black" points="120.488,-814.854 115.914,-805.298 113.53,-815.621 120.488,-814.854"/>
</g>
<!-- \\google\\pubsub\\v1\\PushConfig\\AttributesEntry -->
<g id="node2" class="node"><title>\\google\\pubsub\\v1\\PushConfig\\AttributesEntry</title>
<polygon fill="none" stroke="black" points="467,-1372 349,-1372 349,-1336 467,-1336 467,-1372"/>
<text text-anchor="middle" x="408" y="-1351.2" font-family="Courier,monospace" font-size="11.00">AttributesEntry</text>
</g>
<!-- \\google\\pubsub\\v1\\PushConfig\\AttributesEntry&#45;&gt;\\DrSlump\\Protobuf\\Message -->
<g id="edge13" class="edge"><title>\\google\\pubsub\\v1\\PushConfig\\AttributesEntry&#45;&gt;\\DrSlump\\Protobuf\\Message</title>
<path fill="none" stroke="black" d="M348.711,-1358.7C320.588,-1357.82 288.218,-1351.76 266,-1332 186.143,-1260.99 132.234,-917.021 117.848,-815.354"/>
<polygon fill="none" stroke="black" points="121.284,-814.65 116.434,-805.231 114.352,-815.619 121.284,-814.65"/>
</g>
<!-- \\google\\pubsub\\v1\\Topic -->
<g id="node3" class="node"><title>\\google\\pubsub\\v1\\Topic</title>
<polygon fill="none" stroke="black" points="435,-1318 381,-1318 381,-1282 435,-1282 435,-1318"/>
<text text-anchor="middle" x="408" y="-1297.2" font-family="Courier,monospace" font-size="11.00">Topic</text>
</g>
<!-- \\google\\pubsub\\v1\\Topic&#45;&gt;\\DrSlump\\Protobuf\\Message -->
<g id="edge1" class="edge"><title>\\google\\pubsub\\v1\\Topic&#45;&gt;\\DrSlump\\Protobuf\\Message</title>
<path fill="none" stroke="black" d="M380.934,-1302.44C349.726,-1303.87 297.711,-1301.29 266,-1273 126.962,-1148.96 113.834,-899.75 113.537,-815.545"/>
<polygon fill="none" stroke="black" points="117.037,-815.457 113.562,-805.448 110.037,-815.439 117.037,-815.457"/>
</g>
<!-- \\google\\pubsub\\v1\\PubsubMessage -->
<g id="node4" class="node"><title>\\google\\pubsub\\v1\\PubsubMessage</title>
<polygon fill="none" stroke="black" points="460,-1264 356,-1264 356,-1228 460,-1228 460,-1264"/>
<text text-anchor="middle" x="408" y="-1243.2" font-family="Courier,monospace" font-size="11.00">PubsubMessage</text>
</g>
<!-- \\google\\pubsub\\v1\\PubsubMessage&#45;&gt;\\DrSlump\\Protobuf\\Message -->
<g id="edge3" class="edge"><title>\\google\\pubsub\\v1\\PubsubMessage&#45;&gt;\\DrSlump\\Protobuf\\Message</title>
<path fill="none" stroke="black" d="M355.997,-1248.18C326.531,-1246.77 290.554,-1240.14 266,-1219 140.552,-1110.99 118.616,-892.916 114.798,-815.255"/>
<polygon fill="none" stroke="black" points="118.295,-815.096 114.371,-805.255 111.301,-815.395 118.295,-815.096"/>
</g>
<!-- \\google\\pubsub\\v1\\GetTopicRequest -->
<g id="node5" class="node"><title>\\google\\pubsub\\v1\\GetTopicRequest</title>
<polygon fill="none" stroke="black" points="467,-1210 349,-1210 349,-1174 467,-1174 467,-1210"/>
<text text-anchor="middle" x="408" y="-1189.2" font-family="Courier,monospace" font-size="11.00">GetTopicRequest</text>
</g>
<!-- \\google\\pubsub\\v1\\GetTopicRequest&#45;&gt;\\DrSlump\\Protobuf\\Message -->
<g id="edge4" class="edge"><title>\\google\\pubsub\\v1\\GetTopicRequest&#45;&gt;\\DrSlump\\Protobuf\\Message</title>
<path fill="none" stroke="black" d="M348.749,-1193.28C320.974,-1191.01 288.897,-1183.85 266,-1165 154.074,-1072.84 123.936,-885.925 116.369,-815.078"/>
<polygon fill="none" stroke="black" points="119.85,-814.717 115.374,-805.114 112.885,-815.412 119.85,-814.717"/>
</g>
<!-- \\google\\pubsub\\v1\\PublishRequest -->
<g id="node6" class="node"><title>\\google\\pubsub\\v1\\PublishRequest</title>
<polygon fill="none" stroke="black" points="463.5,-1156 352.5,-1156 352.5,-1120 463.5,-1120 463.5,-1156"/>
<text text-anchor="middle" x="408" y="-1135.2" font-family="Courier,monospace" font-size="11.00">PublishRequest</text>
</g>
<!-- \\google\\pubsub\\v1\\PublishRequest&#45;&gt;\\DrSlump\\Protobuf\\Message -->
<g id="edge5" class="edge"><title>\\google\\pubsub\\v1\\PublishRequest&#45;&gt;\\DrSlump\\Protobuf\\Message</title>
<path fill="none" stroke="black" d="M352.316,-1138.97C323.974,-1136.84 290.304,-1129.89 266,-1111 167.684,-1034.59 130.148,-879.255 118.482,-815.393"/>
<polygon fill="none" stroke="black" points="121.88,-814.508 116.71,-805.26 114.985,-815.714 121.88,-814.508"/>
</g>
<!-- \\google\\pubsub\\v1\\PublishResponse -->
<g id="node7" class="node"><title>\\google\\pubsub\\v1\\PublishResponse</title>
<polygon fill="none" stroke="black" points="467,-1102 349,-1102 349,-1066 467,-1066 467,-1102"/>
<text text-anchor="middle" x="408" y="-1081.2" font-family="Courier,monospace" font-size="11.00">PublishResponse</text>
</g>
<!-- \\google\\pubsub\\v1\\PublishResponse&#45;&gt;\\DrSlump\\Protobuf\\Message -->
<g id="edge6" class="edge"><title>\\google\\pubsub\\v1\\PublishResponse&#45;&gt;\\DrSlump\\Protobuf\\Message</title>
<path fill="none" stroke="black" d="M348.72,-1083.86C321.427,-1081.19 289.773,-1074.1 266,-1057 180.672,-995.615 137.046,-870.63 121.175,-814.902"/>
<polygon fill="none" stroke="black" points="124.483,-813.733 118.448,-805.026 117.735,-815.596 124.483,-813.733"/>
</g>
<!-- \\google\\pubsub\\v1\\ListTopicsRequest -->
<g id="node8" class="node"><title>\\google\\pubsub\\v1\\ListTopicsRequest</title>
<polygon fill="none" stroke="black" points="473.5,-1048 342.5,-1048 342.5,-1012 473.5,-1012 473.5,-1048"/>
<text text-anchor="middle" x="408" y="-1027.2" font-family="Courier,monospace" font-size="11.00">ListTopicsRequest</text>
</g>
<!-- \\google\\pubsub\\v1\\ListTopicsRequest&#45;&gt;\\DrSlump\\Protobuf\\Message -->
<g id="edge7" class="edge"><title>\\google\\pubsub\\v1\\ListTopicsRequest&#45;&gt;\\DrSlump\\Protobuf\\Message</title>
<path fill="none" stroke="black" d="M342.43,-1027.96C316.976,-1024.62 288.508,-1017.53 266,-1003 193.355,-956.089 145.254,-861.076 124.958,-814.288"/>
<polygon fill="none" stroke="black" points="128.175,-812.911 121.05,-805.071 121.731,-815.644 128.175,-812.911"/>
</g>
<!-- \\google\\pubsub\\v1\\ListTopicsResponse -->
<g id="node9" class="node"><title>\\google\\pubsub\\v1\\ListTopicsResponse</title>
<polygon fill="none" stroke="black" points="477,-994 339,-994 339,-958 477,-958 477,-994"/>
<text text-anchor="middle" x="408" y="-973.2" font-family="Courier,monospace" font-size="11.00">ListTopicsResponse</text>
</g>
<!-- \\google\\pubsub\\v1\\ListTopicsResponse&#45;&gt;\\DrSlump\\Protobuf\\Message -->
<g id="edge8" class="edge"><title>\\google\\pubsub\\v1\\ListTopicsResponse&#45;&gt;\\DrSlump\\Protobuf\\Message</title>
<path fill="none" stroke="black" d="M338.777,-971.643C314.652,-967.903 288.053,-961.14 266,-949 205.888,-915.909 155.911,-850.563 131.018,-813.781"/>
<polygon fill="none" stroke="black" points="133.687,-811.475 125.238,-805.083 127.857,-815.349 133.687,-811.475"/>
</g>
<!-- \\google\\pubsub\\v1\\ListTopicSubscriptionsRequest -->
<g id="node10" class="node"><title>\\google\\pubsub\\v1\\ListTopicSubscriptionsRequest</title>
<polygon fill="none" stroke="black" points="514,-940 302,-940 302,-904 514,-904 514,-940"/>
<text text-anchor="middle" x="408" y="-919.2" font-family="Courier,monospace" font-size="11.00">ListTopicSubscriptionsRequest</text>
</g>
<!-- \\google\\pubsub\\v1\\ListTopicSubscriptionsRequest&#45;&gt;\\DrSlump\\Protobuf\\Message -->
<g id="edge9" class="edge"><title>\\google\\pubsub\\v1\\ListTopicSubscriptionsRequest&#45;&gt;\\DrSlump\\Protobuf\\Message</title>
<path fill="none" stroke="black" d="M301.925,-907.093C289.577,-903.824 277.347,-899.844 266,-895 217.831,-874.437 169.837,-836.729 141.035,-811.76"/>
<polygon fill="none" stroke="black" points="143.258,-809.054 133.436,-805.08 138.636,-814.311 143.258,-809.054"/>
</g>
<!-- \\google\\pubsub\\v1\\ListTopicSubscriptionsResponse -->
<g id="node11" class="node"><title>\\google\\pubsub\\v1\\ListTopicSubscriptionsResponse</title>
<polygon fill="none" stroke="black" points="517.5,-886 298.5,-886 298.5,-850 517.5,-850 517.5,-886"/>
<text text-anchor="middle" x="408" y="-865.2" font-family="Courier,monospace" font-size="11.00">ListTopicSubscriptionsResponse</text>
</g>
<!-- \\google\\pubsub\\v1\\ListTopicSubscriptionsResponse&#45;&gt;\\DrSlump\\Protobuf\\Message -->
<g id="edge10" class="edge"><title>\\google\\pubsub\\v1\\ListTopicSubscriptionsResponse&#45;&gt;\\DrSlump\\Protobuf\\Message</title>
<path fill="none" stroke="black" d="M303.017,-849.952C290.479,-847.228 277.906,-844.235 266,-841 231.886,-831.732 194.458,-818.474 165.278,-807.415"/>
<polygon fill="none" stroke="black" points="166.306,-804.061 155.715,-803.758 163.805,-810.599 166.306,-804.061"/>
</g>
<!-- \\google\\pubsub\\v1\\DeleteTopicRequest -->
<g id="node12" class="node"><title>\\google\\pubsub\\v1\\DeleteTopicRequest</title>
<polygon fill="none" stroke="black" points="477,-832 339,-832 339,-796 477,-796 477,-832"/>
<text text-anchor="middle" x="408" y="-811.2" font-family="Courier,monospace" font-size="11.00">DeleteTopicRequest</text>
</g>
<!-- \\google\\pubsub\\v1\\DeleteTopicRequest&#45;&gt;\\DrSlump\\Protobuf\\Message -->
<g id="edge11" class="edge"><title>\\google\\pubsub\\v1\\DeleteTopicRequest&#45;&gt;\\DrSlump\\Protobuf\\Message</title>
<path fill="none" stroke="black" d="M338.674,-807.704C303.674,-804.478 260.254,-800.477 220.942,-796.855"/>
<polygon fill="none" stroke="black" points="221.056,-793.351 210.777,-795.918 220.414,-800.321 221.056,-793.351"/>
</g>
<!-- \\google\\pubsub\\v1\\Subscription -->
<g id="node13" class="node"><title>\\google\\pubsub\\v1\\Subscription</title>
<polygon fill="none" stroke="black" points="457,-778 359,-778 359,-742 457,-742 457,-778"/>
<text text-anchor="middle" x="408" y="-757.2" font-family="Courier,monospace" font-size="11.00">Subscription</text>
</g>
<!-- \\google\\pubsub\\v1\\Subscription&#45;&gt;\\DrSlump\\Protobuf\\Message -->
<g id="edge12" class="edge"><title>\\google\\pubsub\\v1\\Subscription&#45;&gt;\\DrSlump\\Protobuf\\Message</title>
<path fill="none" stroke="black" d="M358.945,-764.428C321.508,-767.878 268.106,-772.799 220.715,-777.166"/>
<polygon fill="none" stroke="black" points="220.338,-773.686 210.701,-778.089 220.98,-780.656 220.338,-773.686"/>
</g>
<!-- \\google\\pubsub\\v1\\PushConfig -->
<g id="node14" class="node"><title>\\google\\pubsub\\v1\\PushConfig</title>
<polygon fill="none" stroke="black" points="450,-724 366,-724 366,-688 450,-688 450,-724"/>
<text text-anchor="middle" x="408" y="-703.2" font-family="Courier,monospace" font-size="11.00">PushConfig</text>
</g>
<!-- \\google\\pubsub\\v1\\PushConfig&#45;&gt;\\DrSlump\\Protobuf\\Message -->
<g id="edge14" class="edge"><title>\\google\\pubsub\\v1\\PushConfig&#45;&gt;\\DrSlump\\Protobuf\\Message</title>
<path fill="none" stroke="black" d="M365.901,-712.173C337.572,-716.841 299.192,-723.982 266,-733 231.886,-742.268 194.458,-755.526 165.278,-766.585"/>
<polygon fill="none" stroke="black" points="163.805,-763.401 155.715,-770.242 166.306,-769.939 163.805,-763.401"/>
</g>
<!-- \\google\\pubsub\\v1\\ReceivedMessage -->
<g id="node15" class="node"><title>\\google\\pubsub\\v1\\ReceivedMessage</title>
<polygon fill="none" stroke="black" points="467,-670 349,-670 349,-634 467,-634 467,-670"/>
<text text-anchor="middle" x="408" y="-649.2" font-family="Courier,monospace" font-size="11.00">ReceivedMessage</text>
</g>
<!-- \\google\\pubsub\\v1\\ReceivedMessage&#45;&gt;\\DrSlump\\Protobuf\\Message -->
<g id="edge15" class="edge"><title>\\google\\pubsub\\v1\\ReceivedMessage&#45;&gt;\\DrSlump\\Protobuf\\Message</title>
<path fill="none" stroke="black" d="M348.756,-657.46C322.68,-661.328 292.017,-667.893 266,-679 217.831,-699.563 169.837,-737.271 141.035,-762.24"/>
<polygon fill="none" stroke="black" points="138.636,-759.689 133.436,-768.92 143.258,-764.946 138.636,-759.689"/>
</g>
<!-- \\google\\pubsub\\v1\\GetSubscriptionRequest -->
<g id="node16" class="node"><title>\\google\\pubsub\\v1\\GetSubscriptionRequest</title>
<polygon fill="none" stroke="black" points="490.5,-616 325.5,-616 325.5,-580 490.5,-580 490.5,-616"/>
<text text-anchor="middle" x="408" y="-595.2" font-family="Courier,monospace" font-size="11.00">GetSubscriptionRequest</text>
</g>
<!-- \\google\\pubsub\\v1\\GetSubscriptionRequest&#45;&gt;\\DrSlump\\Protobuf\\Message -->
<g id="edge16" class="edge"><title>\\google\\pubsub\\v1\\GetSubscriptionRequest&#45;&gt;\\DrSlump\\Protobuf\\Message</title>
<path fill="none" stroke="black" d="M325.314,-604.731C305.06,-608.755 284.013,-615.084 266,-625 205.888,-658.091 155.911,-723.437 131.018,-760.219"/>
<polygon fill="none" stroke="black" points="127.857,-758.651 125.238,-768.917 133.687,-762.525 127.857,-758.651"/>
</g>
<!-- \\google\\pubsub\\v1\\ListSubscriptionsRequest -->
<g id="node17" class="node"><title>\\google\\pubsub\\v1\\ListSubscriptionsRequest</title>
<polygon fill="none" stroke="black" points="497.5,-562 318.5,-562 318.5,-526 497.5,-526 497.5,-562"/>
<text text-anchor="middle" x="408" y="-541.2" font-family="Courier,monospace" font-size="11.00">ListSubscriptionsRequest</text>
</g>
<!-- \\google\\pubsub\\v1\\ListSubscriptionsRequest&#45;&gt;\\DrSlump\\Protobuf\\Message -->
<g id="edge17" class="edge"><title>\\google\\pubsub\\v1\\ListSubscriptionsRequest&#45;&gt;\\DrSlump\\Protobuf\\Message</title>
<path fill="none" stroke="black" d="M318.396,-550.281C300.06,-554.43 281.599,-560.927 266,-571 193.355,-617.911 145.254,-712.924 124.958,-759.712"/>
<polygon fill="none" stroke="black" points="121.731,-758.356 121.05,-768.929 128.175,-761.089 121.731,-758.356"/>
</g>
<!-- \\google\\pubsub\\v1\\ListSubscriptionsResponse -->
<g id="node18" class="node"><title>\\google\\pubsub\\v1\\ListSubscriptionsResponse</title>
<polygon fill="none" stroke="black" points="500.5,-508 315.5,-508 315.5,-472 500.5,-472 500.5,-508"/>
<text text-anchor="middle" x="408" y="-487.2" font-family="Courier,monospace" font-size="11.00">ListSubscriptionsResponse</text>
</g>
<!-- \\google\\pubsub\\v1\\ListSubscriptionsResponse&#45;&gt;\\DrSlump\\Protobuf\\Message -->
<g id="edge18" class="edge"><title>\\google\\pubsub\\v1\\ListSubscriptionsResponse&#45;&gt;\\DrSlump\\Protobuf\\Message</title>
<path fill="none" stroke="black" d="M315.395,-495.641C297.851,-499.893 280.466,-506.593 266,-517 180.672,-578.385 137.046,-703.37 121.175,-759.098"/>
<polygon fill="none" stroke="black" points="117.735,-758.404 118.448,-768.974 124.483,-760.267 117.735,-758.404"/>
</g>
<!-- \\google\\pubsub\\v1\\DeleteSubscriptionRequest -->
<g id="node19" class="node"><title>\\google\\pubsub\\v1\\DeleteSubscriptionRequest</title>
<polygon fill="none" stroke="black" points="500.5,-454 315.5,-454 315.5,-418 500.5,-418 500.5,-454"/>
<text text-anchor="middle" x="408" y="-433.2" font-family="Courier,monospace" font-size="11.00">DeleteSubscriptionRequest</text>
</g>
<!-- \\google\\pubsub\\v1\\DeleteSubscriptionRequest&#45;&gt;\\DrSlump\\Protobuf\\Message -->
<g id="edge19" class="edge"><title>\\google\\pubsub\\v1\\DeleteSubscriptionRequest&#45;&gt;\\DrSlump\\Protobuf\\Message</title>
<path fill="none" stroke="black" d="M315.146,-440.728C297.522,-445.034 280.169,-451.988 266,-463 167.684,-539.41 130.148,-694.745 118.482,-758.607"/>
<polygon fill="none" stroke="black" points="114.985,-758.286 116.71,-768.74 121.88,-759.492 114.985,-758.286"/>
</g>
<!-- \\google\\pubsub\\v1\\ModifyPushConfigRequest -->
<g id="node20" class="node"><title>\\google\\pubsub\\v1\\ModifyPushConfigRequest</title>
<polygon fill="none" stroke="black" points="494,-400 322,-400 322,-364 494,-364 494,-400"/>
<text text-anchor="middle" x="408" y="-379.2" font-family="Courier,monospace" font-size="11.00">ModifyPushConfigRequest</text>
</g>
<!-- \\google\\pubsub\\v1\\ModifyPushConfigRequest&#45;&gt;\\DrSlump\\Protobuf\\Message -->
<g id="edge20" class="edge"><title>\\google\\pubsub\\v1\\ModifyPushConfigRequest&#45;&gt;\\DrSlump\\Protobuf\\Message</title>
<path fill="none" stroke="black" d="M321.999,-384.46C301.914,-388.57 281.778,-396.009 266,-409 154.074,-501.158 123.936,-688.075 116.369,-758.922"/>
<polygon fill="none" stroke="black" points="112.885,-758.588 115.374,-768.886 119.85,-759.283 112.885,-758.588"/>
</g>
<!-- \\google\\pubsub\\v1\\PullRequest -->
<g id="node21" class="node"><title>\\google\\pubsub\\v1\\PullRequest</title>
<polygon fill="none" stroke="black" points="453.5,-346 362.5,-346 362.5,-310 453.5,-310 453.5,-346"/>
<text text-anchor="middle" x="408" y="-325.2" font-family="Courier,monospace" font-size="11.00">PullRequest</text>
</g>
<!-- \\google\\pubsub\\v1\\PullRequest&#45;&gt;\\DrSlump\\Protobuf\\Message -->
<g id="edge21" class="edge"><title>\\google\\pubsub\\v1\\PullRequest&#45;&gt;\\DrSlump\\Protobuf\\Message</title>
<path fill="none" stroke="black" d="M362.345,-325.591C331.85,-326.335 292.348,-332.314 266,-355 140.552,-463.009 118.616,-681.084 114.798,-758.745"/>
<polygon fill="none" stroke="black" points="111.301,-758.605 114.371,-768.745 118.295,-758.904 111.301,-758.605"/>
</g>
<!-- \\google\\pubsub\\v1\\PullResponse -->
<g id="node22" class="node"><title>\\google\\pubsub\\v1\\PullResponse</title>
<polygon fill="none" stroke="black" points="457,-292 359,-292 359,-256 457,-256 457,-292"/>
<text text-anchor="middle" x="408" y="-271.2" font-family="Courier,monospace" font-size="11.00">PullResponse</text>
</g>
<!-- \\google\\pubsub\\v1\\PullResponse&#45;&gt;\\DrSlump\\Protobuf\\Message -->
<g id="edge22" class="edge"><title>\\google\\pubsub\\v1\\PullResponse&#45;&gt;\\DrSlump\\Protobuf\\Message</title>
<path fill="none" stroke="black" d="M358.77,-271.392C328.666,-272.364 291.015,-278.684 266,-301 126.962,-425.037 113.834,-674.25 113.537,-758.455"/>
<polygon fill="none" stroke="black" points="110.037,-758.561 113.562,-768.552 117.037,-758.543 110.037,-758.561"/>
</g>
<!-- \\google\\pubsub\\v1\\ModifyAckDeadlineRequest -->
<g id="node23" class="node"><title>\\google\\pubsub\\v1\\ModifyAckDeadlineRequest</title>
<polygon fill="none" stroke="black" points="497.5,-238 318.5,-238 318.5,-202 497.5,-202 497.5,-238"/>
<text text-anchor="middle" x="408" y="-217.2" font-family="Courier,monospace" font-size="11.00">ModifyAckDeadlineRequest</text>
</g>
<!-- \\google\\pubsub\\v1\\ModifyAckDeadlineRequest&#45;&gt;\\DrSlump\\Protobuf\\Message -->
<g id="edge23" class="edge"><title>\\google\\pubsub\\v1\\ModifyAckDeadlineRequest&#45;&gt;\\DrSlump\\Protobuf\\Message</title>
<path fill="none" stroke="black" d="M318.428,-221.855C299.242,-226.111 280.411,-233.767 266,-247 187.96,-318.66 132.779,-658.564 117.971,-758.994"/>
<polygon fill="none" stroke="black" points="114.493,-758.594 116.514,-768.994 121.42,-759.603 114.493,-758.594"/>
</g>
<!-- \\google\\pubsub\\v1\\AcknowledgeRequest -->
<g id="node24" class="node"><title>\\google\\pubsub\\v1\\AcknowledgeRequest</title>
<polygon fill="none" stroke="black" points="477,-184 339,-184 339,-148 477,-148 477,-184"/>
<text text-anchor="middle" x="408" y="-163.2" font-family="Courier,monospace" font-size="11.00">AcknowledgeRequest</text>
</g>
<!-- \\google\\pubsub\\v1\\AcknowledgeRequest&#45;&gt;\\DrSlump\\Protobuf\\Message -->
<g id="edge24" class="edge"><title>\\google\\pubsub\\v1\\AcknowledgeRequest&#45;&gt;\\DrSlump\\Protobuf\\Message</title>
<path fill="none" stroke="black" d="M338.687,-164.264C312.987,-167.087 285.336,-174.815 266,-193 181.006,-272.936 130.116,-651.552 117.248,-758.692"/>
<polygon fill="none" stroke="black" points="113.757,-758.404 116.056,-768.746 120.709,-759.228 113.757,-758.404"/>
</g>
<!-- \\google\\pubsub\\v1\\SubscriberClient -->
<g id="node25" class="node"><title>\\google\\pubsub\\v1\\SubscriberClient</title>
<polygon fill="none" stroke="black" points="470.5,-130 345.5,-130 345.5,-94 470.5,-94 470.5,-130"/>
<text text-anchor="middle" x="408" y="-109.2" font-family="Courier,monospace" font-size="11.00">SubscriberClient</text>
</g>
<!-- \\Grpc\\BaseStub -->
<g id="node28" class="node"><title>\\Grpc\\BaseStub</title>
<ellipse fill="none" stroke="black" cx="113" cy="-85" rx="63.8893" ry="18"/>
<text text-anchor="middle" x="113" y="-81.3" font-family="Times,serif" font-size="14.00" fill="gray">Grpc\BaseStub</text>
</g>
<!-- \\google\\pubsub\\v1\\SubscriberClient&#45;&gt;\\Grpc\\BaseStub -->
<g id="edge25" class="edge"><title>\\google\\pubsub\\v1\\SubscriberClient&#45;&gt;\\Grpc\\BaseStub</title>
<path fill="none" stroke="black" d="M345.22,-106.307C298.039,-101.959 232.997,-95.9656 183.912,-91.4424"/>
<polygon fill="none" stroke="black" points="183.971,-87.9331 173.692,-90.5007 183.329,-94.9036 183.971,-87.9331"/>
</g>
<!-- \\google\\pubsub\\v1\\PublisherClient -->
<g id="node26" class="node"><title>\\google\\pubsub\\v1\\PublisherClient</title>
<polygon fill="none" stroke="black" points="467,-76 349,-76 349,-40 467,-40 467,-76"/>
<text text-anchor="middle" x="408" y="-55.2" font-family="Courier,monospace" font-size="11.00">PublisherClient</text>
</g>
<!-- \\google\\pubsub\\v1\\PublisherClient&#45;&gt;\\Grpc\\BaseStub -->
<g id="edge26" class="edge"><title>\\google\\pubsub\\v1\\PublisherClient&#45;&gt;\\Grpc\\BaseStub</title>
<path fill="none" stroke="black" d="M348.762,-63.3666C301.376,-67.7333 234.347,-73.91 184.036,-78.5462"/>
<polygon fill="none" stroke="black" points="183.524,-75.0784 173.888,-79.4814 184.167,-82.0489 183.524,-75.0784"/>
</g>
</g>
</svg>
